# xmcd
#
# Track frame offsets:
#	150
#	13721
#	33562
#	48877
#	62480
#	78912
#	88831
#	105776
#	119580
#	131215
#
# Disc length: 1942 seconds
#
# Revision: 1
# Processed by: cddbd v1.5.2PL0 Copyright (c) Steve Scherf et al.
# Submitted via: audiograbber 1.83.01
#
DISCID=7a07940a
DTITLE=Gordon Lowry - One More Step
DYEAR=1998
DGENRE=Country
TTITLE0=One More Step
TTITLE1=If You're Gonna Do Me Wrong (Do It Right)
TTITLE2=San Antonio Rose
TTITLE3=Bitter They Are
TTITLE4=Cry Myself To Sleep
TTITLE5=New Grass
TTITLE6=Maiden's Prayer
TTITLE7=In The Pines
TTITLE8=Help Me Make It Thru The Night
TTITLE9=I'm So Lonesome I Could Cry
EXTD=
EXTT0=
EXTT1=
EXTT2=
EXTT3=
EXTT4=
EXTT5=
EXTT6=
EXTT7=
EXTT8=
EXTT9=
PLAYORDER=
